# xmcd CD database file
#
# Track frame offsets:
#	150
#	17864
#	38710
#	49756
#	64201
#	103867
#	126527
#	151199
#	170243
#	185706
#
# Disc length: 2769 seconds
#
# Revision: 0
# Processed by: cddbd v1.5.2PL0 Copyright (c) Steve Scherf et al.
# Submitted via: CDex 1.77
#
DISCID=910acf0a
DTITLE=Rod Garfield with Jimi Hocking - Blowin' His Stack
DYEAR=2001
DGENRE=Blues
TTITLE0=Chicago Callin'
TTITLE1=Workin' Man Blues
TTITLE2=Rock Me Mamo
TTITLE3=Trouble In Mind
TTITLE4=Jelliroll Blues
TTITLE5=Sweet Aleese
TTITLE6=Bright Lights, Big City
TTITLE7=Walking Blues
TTITLE8=Sweet Mary Blues
TTITLE9=Bring It On Home
EXTD=YEAR: 2001
EXTT0=
EXTT1=
EXTT2=
EXTT3=
EXTT4=
EXTT5=
EXTT6=
EXTT7=
EXTT8=
EXTT9=
PLAYORDER=
